/* XPM */
static char *_DduK2vu[] = {
/* columns rows colors chars-per-pixel */
"64 64 203 2 ",
"   c #252525",
".  c #2B2B2B",
"X  c #343434",
"o  c #3C3C3C",
"O  c #7D0038",
"+  c #6F1663",
"@  c #434343",
"#  c #4B4B4B",
"$  c #535353",
"%  c #5B5B5B",
"&  c #636363",
"*  c #6C6C6C",
"=  c #727272",
"-  c #7C7C7C",
";  c #BB0E00",
":  c #BB160E",
">  c #94072C",
",  c #B41928",
"<  c #B7231C",
"1  c #C31602",
"2  c #CB1E0A",
"3  c #C71906",
"4  c #D61C04",
"5  c #CF1008",
"6  c #E71C01",
"7  c #F00A00",
"8  c #CE210C",
"9  c #C7240E",
"0  c #D62307",
"q  c #D32612",
"w  c #D62915",
"e  c #DB2E1A",
"r  c #D82A16",
"t  c #DE311D",
"y  c #C32818",
"u  c #E82408",
"i  c #F22500",
"p  c #F52A02",
"a  c #FF3A04",
"s  c #EA2A15",
"d  c #F22D16",
"f  c #E2321E",
"g  c #EC3419",
"h  c #F3331D",
"j  c #F53C15",
"k  c #EB360D",
"l  c #C82A36",
"z  c #CE3528",
"x  c #E33622",
"c  c #E63925",
"v  c #EA3B26",
"b  c #EB3D29",
"n  c #EC3621",
"m  c #F33721",
"M  c #FB4512",
"N  c #ED402D",
"B  c #F34632",
"V  c #F84C38",
"C  c #FF523E",
"Z  c #F44C31",
"A  c #C64336",
"S  c #86155C",
"D  c #B2294C",
"F  c #811474",
"G  c #97256C",
"H  c #942649",
"J  c #B36356",
"K  c #FF5641",
"L  c #FF5945",
"P  c #FC5B48",
"I  c #E35E50",
"U  c #D5685D",
"Y  c #FB604D",
"T  c #F56958",
"R  c #ED6B5C",
"E  c #EC7466",
"W  c #BE807A",
"Q  c #EE877C",
"!  c #D48E62",
"~  c #29079E",
"^  c #0100AD",
"/  c #0300A3",
"(  c #1707AC",
")  c #0300B2",
"_  c #0200BB",
"`  c #0C00B7",
"'  c #1100BE",
"]  c #1500B3",
"[  c #3014AD",
"{  c #3327A4",
"}  c #3029A3",
"|  c #530D8F",
" . c #6A198C",
".. c #5016A8",
"X. c #6A2A97",
"o. c #4942A3",
"O. c #5752AD",
"+. c #645CA7",
"@. c #746DAC",
"#. c #7A75AC",
"$. c #0300C4",
"%. c #0B00CC",
"&. c #1502C2",
"*. c #1905C6",
"=. c #1B06C8",
"-. c #1E0ACB",
";. c #1200CD",
":. c #1B06D4",
">. c #1709D7",
",. c #0E08DB",
"<. c #210DCE",
"1. c #240BC5",
"2. c #220DD3",
"3. c #210BD8",
"4. c #2511D3",
"5. c #2A15D6",
"6. c #2B17D8",
"7. c #2E19DA",
"8. c #2610D8",
"9. c #311CDC",
"0. c #2710CE",
"q. c #0709E9",
"w. c #0107F4",
"e. c #0816FE",
"r. c #1818F7",
"t. c #180FE6",
"y. c #271BE6",
"u. c #321FE0",
"i. c #3A26E7",
"p. c #2A24EF",
"a. c #412DED",
"s. c #4A36F6",
"d. c #4A37F7",
"f. c #523EFF",
"g. c #4430EE",
"h. c #5541FF",
"j. c #5945FF",
"k. c #5E4AFF",
"l. c #634EFF",
"z. c #6955FF",
"x. c #4951CF",
"c. c #9B3499",
"v. c #827FA9",
"b. c #6E85D9",
"n. c #828282",
"m. c #8B8B8B",
"M. c #9C9C9C",
"N. c #959595",
"B. c #8987AD",
"V. c #9594AC",
"C. c #9896B2",
"Z. c #908DAC",
"A. c #A59FAD",
"S. c #A4A4A4",
"D. c #ACACAC",
"F. c #A7A7B5",
"G. c #B4B4B4",
"H. c #BCBCBC",
"J. c #B7B5B6",
"K. c #AEB3BF",
"L. c #D38F88",
"P. c #EE978E",
"I. c #E8A39C",
"U. c #D4BBB9",
"Y. c #CBB0AD",
"T. c #E8AFA9",
"R. c #CAB39F",
"E. c #BFC0BB",
"W. c #C6C8BD",
"Q. c #E4D2AD",
"!. c #9EBCDF",
"~. c #B4D2E1",
"^. c #C4C4C4",
"/. c #CDCDCE",
"(. c #CACAC5",
"). c #D3D4CD",
"_. c #D8DAC8",
"`. c #D3D3D3",
"'. c #DCDCDC",
"]. c #D5D9D8",
"[. c #C9D6D8",
"{. c #E3DCDB",
"}. c #E7CBC8",
"|. c #DCE5D5",
" X c #E2E4CD",
".X c #E6E9CC",
"XX c #E9EBCC",
"oX c #E3E5C7",
"OX c #E3E8D4",
"+X c #CDE4E8",
"@X c #DAE6E7",
"#X c #D8F5F9",
"$X c #E4E4E4",
"%X c #ECECEC",
"&X c #E5EAEA",
"*X c #F0EFEE",
"=X c #E4FDFE",
"-X c #EBFDFE",
";X c #E6F4F5",
":X c #F4F4F4",
">X c #FCFCFC",
",X c #F2F9FA",
"<X c None",
/* pixels */
"<X<X<X<X<X<X<X<X<X<X<X<X<X<X<X<X<X<X<X<X<X<X<X<X<X<X<X<X<X<X<X<X<X<X<X<X<X<X<X<X<X<X<X<X<X<X<X<X<X<X<X<X<X<X<X<X<X<X<X<X<X<X<X<X",
"<X<X<X<X<X<X<X<X<X<X<X<X<X<X<X<X<X<X<X<X<X<X<X<X<X<X<X<X<X<X& * * & <X<X<X<X<X<X<X<X<X<X<X<X<X<X<X<X<X<X<X<X<X<X<X<X<X<X<X<X<X<X",
"<X<X<X<X<X<X<X<X<X<X<X<X<X<X<X<X<X<X<X<X<X<X<X<X* * = = * * * % % % & & % * & & <X<X<X<X<X<X<X<X<X<X<X<X<X<X<X<X<X<X<X<X<X<X<X<X",
"<X<X<X<X<X<X<X<X<X<X<X<X<X<X<X<X<X<X<X<X<X* = = * * % # # o o o o o o @ # # $ $ % % % <X<X<X<X<X<X<X<X<X<X<X<X<X<X<X<X<X<X<X<X<X",
"<X<X<X<X<X<X<X<X<X<X<X<X<X<X<X<X<X<X<X= - * & # o .     . X o o o o o X .   . o @ # $ $ $ % <X<X<X<X<X<X<X<X<X<X<X<X<X<X<X<X<X<X",
"<X<X<X<X<X<X<X<X<X<X<X<X<X<X<X<X<X= - * $ o     X # = N.D.^./.'.].`.(.J.M.n.% o   . o # # $ $ <X<X<X<X<X<X<X<X<X<X<X<X<X<X<X<X<X",
"<X<X<X<X<X<X<X<X<X<X<X<X<X<X<X* n.= # X   . % m.(.%X>X>X>X>X>X>X>X>X>X>X>X>X>X].S.* o   X # @ # % <X<X<X<X<X<X<X<X<X<X<X<X<X<X<X",
"<X<X<X<X<X<X<X<X<X<X<X<X<X<X= - $ o   X = J.:X>X>X>X>X>X>X>X>X>X>X>X>X>X>X>X>X>X>X>X].m.@   o # @ $ % <X<X<X<X<X<X<X<X<X<X<X<X<X",
"<X<X<X<X<X<X<X<X<X<X<X<X% n.* @ .   & (.>X>X>X>X>X>X>X>X>X>X>X>X>X>X>X>X>X>X>X>X>X>X>X>X&Xm.X . @ # # % <X<X<X<X<X<X<X<X<X<X<X<X",
"<X<X<X<X<X<X<X<X<X<X<X& n.& o   o D.>X>X>X>X:X>X:X>X>X>X>X>X:X>X>X>X>X>X:X>X>X>X>X:X>X>X>X>X`.%   o @ @ % <X<X<X<X<X<X<X<X<X<X<X",
"<X<X<X<X<X<X<X<X<X<X& n.% X   % {.>X>X>X>X>X:X>X>X:X>X:X:X>X>X>X>X>X:X>X:X>X:X>X:X>X>X>X>X>X>X>Xm.. X @ @ $ <X<X<X<X<X<X<X<X<X<X",
"<X<X<X<X<X<X<X<X<X& n.$ X   - >X>X>X,X,X>X:X>X:X:X>X>X:X>X:X,X,X:X:X>X:X>X:X>X>X:X:X>X:X:X>X>X>X>XJ.X X # @ $ <X<X<X<X<X<X<X<X<X",
"<X<X<X<X<X<X<X<X% n.$ X   m.>X>X:X:X:X:X:X>X:X:X:X:X:X:X:X,X,X,X,X,X:X:X:X:X:X:X>X:X:X,X:X:X:X:X>X>X(.o X @ @ $ <X<X<X<X<X<X<X<X",
"<X<X<X<X<X<X<X<X- % X   m.>X>X:X:X:X:X:X:X:X:X:X:X:X,X-X-X;X%X&X&X%X;X;X-X-X,X:X:X:X:X:X:X:X:X:X:X>X>X(.X X # @ % <X<X<X<X<X<X<X",
"<X<X<X<X<X<X<X= * o   - >X>X:X:X:X:X:X:X:X:X:X*X-X;X{.T.P.Q E T T T E P.I.}.;X-X-X*X:X:X:X:X:X:X:X:X:X>XH.X o @ # <X<X<X<X<X<X<X",
"<X<X<X<X<X<X* = @   & :X>X%X:X:X:X*X*X:X*X%X=X;X}.P.T V m h m m m n m h h B R I.&X=X*X%X:X:X*X*X*X*X*X>X>XN.. @ @ # <X<X<X<X<X<X",
"<X<X<X<X<X<X= $ X o `.>X:X%X*X*X*X*X*X%X;X#X{.Q Z m m v b b N B B b b b b b d d K I.=X-X%X*X*X*X*X:X%X%X>X>X*   # @ % <X<X<X<X<X",
"<X<X<X<X<X* & o . S.>X:X%X%X*X%X*X%X&X;X&XI.K h n v b b B b N b b b B b b b b b s u I ].=X%X%X%X%X%X*X%X*X>X$X@ X o # <X<X<X<X<X",
"<X<X<X<X<X= # . & :X:X&X%X%X%X%X%X&X;X@XE m f n b c c b v b b b b b b b b b b b b b i f U.=X%X%X%X%X%X%X%X%X>XS.. @ @ $ <X<X<X<X",
"<X<X<X<X* % X X J.>X$X&X%X%X&X$X&X;X@XR h f c c c b v f v v v c b b b b b b b b b b b d 4 U.=X$X&X%X&X&X&X&X:X*X% X @ @ <X<X<X<X",
"<X<X<X<X* # . * :X%X$X&X$X%X$X$X&X@XR s f c c c t B L c t t c c v c c c c c b c c c c b s q (.=X$X$X&X$X$X&X&X>XD.. @ @ $ <X<X<X",
"<X<X<X& % o X S.>X$X$X$X$X$X$X$X#XL.g n x x x x e B Y B t c t f c n c c c c j a a a M g b 7 z +X&X&X&X$X$X$X$X%X%X$ X o # <X<X<X",
"<X<X<X* $ X $ '.%X$X$X$X$X$X$X#XU.x g L c t t t e c K C B C f x t x f x a a l D G G D z a j q J #X'.$X$X$X$X$X$X>Xm.. @ @ <X<X<X",
"<X<X<X& @ . - :X$X{.'.{.$X$X{.+XU 6 r K N r t e w c K L Z N C N r e d a l ..u.r.r.r.r.9.X.l p 2 /.;X'.$X$X{.$X$X;XU.o @ @ % <X<X",
"<X<X& $ o X D.*X{.'.'.@X'.'.#XY.f q q s x w q r q N L L V w t t e k p  .r.r.p.7.u.u.y.y.e.r.G 7 J #X'.'.'.$X'.{.$X&X& X o # <X<X",
"<X<X% $ X $ `.&X'.'.'.'.'.@X+XU 4 f K b 8 f f 3 2 C L K V q q q N Z ..e.p.9.7.7.9.4.6.a.7.y.e.F 0 /.&X'.'.'.'.{.'.:Xn.. @ # <X<X",
"<X<X% # . * {.'.`.'.'.].'.@XU.t 4 t B K 2 b P e x K K L N 9 w 9 M c.e.i.7.6.6.6.4.9.g.g.6.5.y.e.O ! #X'.'.'.'.].].:XS.X @ @ <X<X",
"<X<X% # . n.%X'.'.'.`.].[.+XL.4 2 2 2 K B B L L L C C L c 1 q p < q.6.i.4.4.6.-.&.s.j.<.-.6.5.r.] J OX].].].].'.].&XU.o @ @ % <X",
"<X<X$ @ X N.&X].`.`.`.`.`.+XU 0 f 3 e L P K C C C C C C L x 2 i | e.<.4.i.5.&.4.g.j.d.<.9.4.4.5.q.+ oX'.].`.`.`.`.$X/.$ o o $ <X",
"<X% # @ o S.$X`.`.`.`.`.`./.A u K q ; e K K C C C C C C K L s y 1.t.-.i.h.-.-.h.k.j.g.6.s.4.<.0.q.~ R.'.`.`.`.`.`.].].& X @ $ <X",
"<X% # o o D.$X`.)./.`.`.[.H.z 5 b K q 3 C K C C C C C C C L M > q.<.<.<.*.6.h.j.f.j.6.&.9.<.<.2.3.( S.|.`.`./.`./.`.'.* X @ # <X",
"<X% @ @ @ D.'./././././.[.J.y 5 x P B ; b P C C C C C C K K p O q.<.<.*.*.f.j.h.j.s.&.i.l.9.&.-.3.` C.OX/././././.`.'.* X o $ <X",
"<X$ @ o @ D.'./././.`./.[.Y.2 4 r w 1 3 B L C C V K K K K K p S r.-.-.' i.j.h.h.k.6.' l.s.*.-.<.2.` V. X/././././.`.'.* X o # <X",
"<X% # @ @ D.'./././././.[.K.< 4 2 3 ; r L C C C K K V K K K i + r.5.*.*.i.l.f.h.j.6.6.l.i.` -.<.:.` V. X/././.`./.`.'.* X o $ <X",
"<X% @ @ o S.'.`././././.).!.H 4 8 8 1 N P K C C C C K K w 1 6 | w.<.-.=.d.h.h.f.f.f.h.h.j.4.' =.>.] A.|././.)././.`.'.* X o $ <X",
"<X<X# @ o N.'./././././.).~.+ 5 8 8 3 b P K K K K K K f 1 4 2 1.>.<.-.*.i.h.f.f.f.h.h.f.h.f.d.i.;.( J._.`././././.].`.% o o $ <X",
"<X<X# @ X n.$X`.)./.`././. Xx.> i 8 3 t x c L L V K P b 1 i + w.<.<.-.&.i.j.h.h.f.f.f.h.h.l.j.i.$.{ W.).)././././.'.(.@ o o $ <X",
"<X<X# @ X * '.`./././././.XXb.~ 6 0 8 q 1 3 q 2 b Y K e 6 , ,.>.<.<.&.*.h.h.h.h.f.h.l.g.=.7.2.*._ +..X/./././././.$XG.o @ @ <X<X",
"<X<X# @ X % /.]./././.`./.).E.q.| i u 1 2 3 1 ; e b 8 6 4 [ w.1.<.=.4.5.d.h.f.f.f.h.a.=.' &.=.3./ V. X/./././.`./.%XN.. @ # <X<X",
"<X<X$ @ @ @ D.'././././././..XO.q.| 8 i u 0 2 2 2 6 6 l 0.q.0.<.<.&.5.h.h.h.f.f.l.s.` &.=.<.2.$.} _.)./.`.`./././.&X= . o # <X<X",
"<X<X% @ @ X m.$X`./././././._.K.` w.1.S < 5 4 6 4 , + r.q.<.=.<.=.i.<.<.u.s.l.j.i.<.' <.-.-.3.^ v.XX/./.`./././.]./.# o o $ <X<X",
"<X<X<X# @ X % `.`.`./././././.XX+.$.t.w.1...| | [ ,.w.,.1.2.<.<.&.i.l.5.) 4.h.j.g.*.*.<.-.2.$.{ _././.`./.`./.(.%XS.. @ @ <X<X<X",
"<X<X<X$ @ @ o D.'././././././._.W.( %.2.>.q.w.q.t.>.<.-.<.<.<.<.-.*.d.l.<.' ` 7.z.h.-.=.4.:./ A.XX/.`./././././.%X* X o # <X<X<X",
"<X<X<X% @ # . - @X`./././.`././..XC.^ >.4.<.<.4.<.<.<.2.2.<.<.<.-.=.4.i.6.&.6.6.i.h.-.-.:.^ +.XX/.`./././././.&X^.o @ o $ <X<X<X",
"<X<X<X<X# o o @ U.]./././././././.XX#.^ >.4.<.<.<.<.<.<.<.<.4.-.<.<.=.*.-.*.u.u.` -.<.3.^ o. X]./././././././.*Xn.. @ @ <X<X<X<X",
"<X<X<X<X$ @ # . - $X/././././././.).XX@./ ,.4.<.<.<.<.<.<.2.-.<.-.<.<.-.-.<.=.=.<.2.>.^ o.oX_./././././././.&X^.X @ o # <X<X<X<X",
"<X<X<X<X<X# o @ X J.$X/./././.`./.(.).XXB./ $.:.8.2.4.-.<.<.<.<.<.<.<.<.<.<.<.4.4.$./ +.oX].(./././.`.`././.:X* . @ o <X<X<X<X<X",
"<X<X<X<X<X% o # X % ].]./././././.`././.XXJ.o.^ $.:.4.4.<.4.<.4.4.<.<.4.4.2.3.%.) } C..X).(././.`./././.(.:XS.. @ o $ <X<X<X<X<X",
"<X<X<X<X<X<X# o # . n.%X`././././././././.OX_.V.{ ` _ ;.:.3.4.2.2.2.2.:.;.$.^ } #.(..X/./././././././.(.%X`.o o @ @ <X<X<X<X<X<X",
"<X<X<X<X<X<X<X@ @ @ . S.%X(./././././././././..X_.C.+.} ( _ _ _ _ _ _ ) [ o.B.(.XX`./.`././././././.(.'.%X$ . @ o % <X<X<X<X<X<X",
"<X<X<X<X<X<X<X% o @ o o G.%X/././././././././././..X.X(.F.Z.#.@.@.#.B.F.W. X.X`./.)././././././././.'.:X& . # o # <X<X<X<X<X<X<X",
"<X<X<X<X<X<X<X<X# o # X o J.%X/./././././././././././.)._.OX.X.X X.X.X X)./././././././././././.(.$X:X*   @ o # <X<X<X<X<X<X<X<X",
"<X<X<X<X<X<X<X<X<X# o # X o G.%X`./././././././././././././././././././././././././././././././.&X%X&   # o @ <X<X<X<X<X<X<X<X<X",
"<X<X<X<X<X<X<X<X<X<X# o # X X N.%X'.(./././././././././././././././././././.(././././././././.,X`.$   # o @ <X<X<X<X<X<X<X<X<X<X",
"<X<X<X<X<X<X<X<X<X<X<X# o # o   = `.%X`././././././././././././././././.`./././././././.(.$X:XD.o . # o @ <X<X<X<X<X<X<X<X<X<X<X",
"<X<X<X<X<X<X<X<X<X<X<X<X# o @ @ . @ M.$X%X`.(././././././././././././././././././.(./.$X:X/.*   X # o @ <X<X<X<X<X<X<X<X<X<X<X<X",
"<X<X<X<X<X<X<X<X<X<X<X<X<X% o o # X . % D.'.%X$X`./././././././././././././././.'.%X*X(.n.X . @ @ o # <X<X<X<X<X<X<X<X<X<X<X<X<X",
"<X<X<X<X<X<X<X<X<X<X<X<X<X<X% # o @ @ X X $ m.H.'.&X&X'.].`./././././.`.'.$X*X$X`.D.= o   @ # o @ % <X<X<X<X<X<X<X<X<X<X<X<X<X<X",
"<X<X<X<X<X<X<X<X<X<X<X<X<X<X<X<X$ @ o @ @ X . o & n.S.U./.'.$X$X&X$X'.]./.J.M.= # . . @ @ o @ # <X<X<X<X<X<X<X<X<X<X<X<X<X<X<X<X",
"<X<X<X<X<X<X<X<X<X<X<X<X<X<X<X<X<X<X$ @ o @ @ @ X . X @ $ & * * * = * % # X   X o @ @ o @ # % <X<X<X<X<X<X<X<X<X<X<X<X<X<X<X<X<X",
"<X<X<X<X<X<X<X<X<X<X<X<X<X<X<X<X<X<X<X<X$ # @ o @ @ @ @ o X X X . X X X o @ @ o o @ # # <X<X<X<X<X<X<X<X<X<X<X<X<X<X<X<X<X<X<X<X",
"<X<X<X<X<X<X<X<X<X<X<X<X<X<X<X<X<X<X<X<X<X<X<X$ # @ @ o @ o o o o @ o @ o @ @ # # % <X<X<X<X<X<X<X<X<X<X<X<X<X<X<X<X<X<X<X<X<X<X",
"<X<X<X<X<X<X<X<X<X<X<X<X<X<X<X<X<X<X<X<X<X<X<X<X<X<X<X$ $ $ # # # # # $ $ $ <X<X<X<X<X<X<X<X<X<X<X<X<X<X<X<X<X<X<X<X<X<X<X<X<X<X",
"<X<X<X<X<X<X<X<X<X<X<X<X<X<X<X<X<X<X<X<X<X<X<X<X<X<X<X<X<X<X<X<X<X<X<X<X<X<X<X<X<X<X<X<X<X<X<X<X<X<X<X<X<X<X<X<X<X<X<X<X<X<X<X<X"
};
