/* XPM */
static char *yQtFeqk8[] = {
/* columns rows colors chars-per-pixel */
"16 16 160 2 ",
"   c gray20",
".  c #353535",
"X  c gray21",
"o  c #373737",
"O  c gray22",
"+  c #393939",
"@  c #3A3A3A",
"#  c gray23",
"$  c #3C3C3C",
"%  c #3E3E3E",
"&  c #3F3F3F",
"*  c gray25",
"=  c #414141",
"-  c #444444",
";  c #464646",
":  c #484747",
">  c gray29",
",  c #4B4B4B",
"<  c #4E4E4E",
"1  c gray32",
"2  c gray40",
"3  c gray42",
"4  c #717171",
"5  c gray45",
"6  c #747474",
"7  c #767676",
"8  c #797979",
"9  c #930022",
"0  c #9A003D",
"q  c #DB0000",
"w  c #DF0500",
"e  c #E11100",
"r  c #E01901",
"t  c #E81A05",
"y  c #EE1F07",
"u  c #E9250F",
"i  c #FF2600",
"p  c #F73700",
"a  c #FF3100",
"s  c #F7380A",
"d  c #FC3B08",
"f  c #C72A2F",
"g  c #E63521",
"h  c #EC3925",
"j  c #E53A2B",
"k  c #F0422A",
"l  c #F94D39",
"z  c #FF6328",
"x  c #FF672F",
"c  c #B72D4E",
"v  c #8C2474",
"b  c #BA6564",
"n  c #D85244",
"m  c #FF5541",
"M  c #FF5842",
"N  c #FF6342",
"B  c #CF7667",
"V  c #E17063",
"C  c #E8786B",
"Z  c #350087",
"A  c #1F13AF",
"S  c #3700A1",
"D  c #3C08A8",
"F  c #2D21BE",
"G  c #4B0888",
"H  c #564FBB",
"J  c #685ABC",
"K  c #0000C6",
"L  c #0100CE",
"P  c #0200CE",
"I  c #0C02CD",
"U  c #0400D1",
"Y  c #0200D8",
"T  c #0000DA",
"R  c #0600DF",
"E  c #2B16D4",
"W  c #1629DE",
"Q  c #3428C3",
"!  c #0000E0",
"~  c #0808E5",
"^  c #0B0DED",
"/  c #1506E4",
"(  c #000DFF",
")  c #0416FF",
"_  c #2C28FD",
"`  c #442EED",
"'  c #4731F0",
"]  c #4F3AF7",
"[  c #4B3AFF",
"{  c #5A51C2",
"}  c #5B53C2",
"|  c #5C47FF",
" . c #5D49FF",
".. c gray57",
"X. c #979797",
"o. c #9F9F9F",
"O. c #8580BD",
"+. c #8481BE",
"@. c gray64",
"#. c #A4A4A4",
"$. c #A5A5A5",
"%. c gray65",
"&. c #AAAAAA",
"*. c #ABAAAD",
"=. c #B3B3B6",
"-. c gray71",
";. c #B6B6B6",
":. c #B7B7B7",
">. c #B8B7B7",
",. c #BBB9B9",
"<. c #C99F9F",
"1. c #F09C92",
"2. c #F09F96",
"3. c #D1AFAC",
"4. c #8986C0",
"5. c #8E8CC5",
"6. c #BFBFC2",
"7. c #C0BFC2",
"8. c #C2C1C1",
"9. c gray76",
"0. c gray77",
"q. c #C7C5C5",
"w. c #C0C9CC",
"e. c gray80",
"r. c #D5D6C3",
"t. c #D9DBC6",
"y. c #DBDBC6",
"u. c #CECED2",
"i. c #DFDDDD",
"p. c #EEC5C0",
"a. c #EECFCC",
"s. c #D1E2DE",
"d. c #F9FCDA",
"f. c #FAFDDA",
"g. c #FCFFDA",
"h. c #DEDDE2",
"j. c #EEEBE3",
"k. c #EEEDE1",
"l. c #F1EFEF",
"z. c #F1F6E1",
"x. c #FEFFE1",
"c. c #F1F1ED",
"v. c #F4F5EF",
"b. c #FDFFE9",
"n. c #FFFFE8",
"m. c #FFFFE9",
"M. c #FFFFEB",
"N. c #FEFFED",
"B. c #E7F6F7",
"V. c #E4FAFC",
"C. c #E1FFFF",
"Z. c #E2FFFF",
"A. c #F5F6F1",
"S. c #FAFFF6",
"D. c #F4FFFF",
"F. c #F6FFFF",
"G. c #F9FAFA",
"H. c #F9FFFF",
"J. c white",
"K. c None",
/* pixels */
"K.K.K.K.K.K.K.= = K.K.K.K.K.K.K.",
"K.K.K.K.& 5 %.9.0.&.6 . K.K.K.K.",
"K.K.K.< ,.J.J.J.J.J.J.0., K.K.K.",
"K.K., i.J.F.a.2.1.p.F.J.l.: K.K.",
"K.# >.J.B.C u t y i x k.J.e.  K.",
"K.3 G.V.V q h k s c 0 n z.J.6 K.",
"# X.H.3.r g l d v ( ) S <.J.%.. ",
"# %.Z.B e m N j I _ ' T J x.:.& ",
"# #.Z.b w M z f T [  ./ H g.:.& ",
"o ..S.5.9 a p G ^ | ] P O.m.@.# ",
"K.2 j.s.Q Z D ~ E ` R A t.A.7 K.",
"K.. *.m.w.W ! P P K F 9.m.7.# K.",
"K.K.- u.b.t.4.{ { O.r.b.h.1 K.K.",
"K.K.K.- =.v.m.d.d.n.v.6.1 K.K.K.",
"K.K.K.K.o 5 o.=.:.@.8 & K.K.K.K.",
"K.K.K.K.K.K.. & & O K.K.K.K.K.K."
};
