/* XPM */
static char *xLPdlMxP[] = {
/* columns rows colors chars-per-pixel */
"32 32 173 2 ",
"   c gray12",
".  c #232323",
"X  c #2B2B2B",
"o  c #343434",
"O  c #3C3C3C",
"+  c #3E007D",
"@  c #7A0D5A",
"#  c #434343",
"$  c #4C4C4C",
"%  c #535353",
"&  c #5D5D5D",
"*  c #626262",
"=  c #6A6A6A",
"-  c #717171",
";  c #7C7C7C",
":  c #BE132E",
">  c #AC1D37",
",  c #B22837",
"<  c #D50300",
"1  c #D50800",
"2  c #C81F0C",
"3  c #D91703",
"4  c #EC1D03",
"5  c #E71C04",
"6  c #F51B00",
"7  c #D5250E",
"8  c #DE2602",
"9  c #DA2C19",
"0  c #D52916",
"q  c #DF331F",
"w  c #CA2712",
"e  c #E92000",
"r  c #ED230C",
"t  c #E62807",
"y  c #FE2C00",
"u  c #F32406",
"i  c #FD3A06",
"p  c #E22F10",
"a  c #F02D17",
"s  c #ED331D",
"d  c #E6341F",
"f  c #ED3A05",
"g  c #E23622",
"h  c #E63925",
"j  c #EA3D29",
"k  c #E93C28",
"l  c #F63D24",
"z  c #FF400C",
"x  c #FF521E",
"c  c #FF4618",
"v  c #D64B3C",
"b  c #EC412E",
"n  c #F24531",
"m  c #F64834",
"M  c #F84D3A",
"N  c #FF523E",
"B  c #F24931",
"V  c #FF6034",
"C  c #81004A",
"Z  c #911750",
"A  c #B02A52",
"S  c #982973",
"D  c #88447D",
"F  c #D85D50",
"G  c #ED5746",
"H  c #FF5642",
"J  c #FF5945",
"K  c #FA5A47",
"L  c #FF614D",
"P  c #EE6959",
"I  c #CF6C62",
"U  c #EB786B",
"Y  c #DE916B",
"T  c #EC8478",
"R  c #0C00B6",
"E  c #0000BE",
"W  c #1402BD",
"Q  c #1709B9",
"!  c #2706B9",
"~  c #3518B4",
"^  c #3227B7",
"/  c #470F9D",
"(  c #6D249C",
")  c #5D22AC",
"_  c #704095",
"`  c #685FAF",
"'  c #645FB4",
"]  c #6B66B4",
"[  c #0000C1",
"{  c #0900C1",
"}  c #0000C9",
"|  c #1A05C5",
" . c #1E0ACA",
".. c #1704C7",
"X. c #0903D8",
"o. c #1301D4",
"O. c #1D08D6",
"+. c #1C11DC",
"@. c #210DCD",
"#. c #2D0DC0",
"$. c #230ED3",
"%. c #2A16D6",
"&. c #2816DA",
"*. c #301CDD",
"=. c #0807E7",
"-. c #030BF2",
";. c #0000F9",
":. c #0919FF",
">. c #1218FA",
",. c #1512EC",
"<. c #2613E6",
"1. c #3D29EA",
"2. c #3723E4",
"3. c #4330EC",
"4. c #4935F7",
"5. c #4935F4",
"6. c #513DFD",
"7. c #402AE9",
"8. c #6477DC",
"9. c #5A46FF",
"0. c #5D49FF",
"q. c #5642FF",
"w. c #624EFF",
"e. c #83278B",
"r. c #817AB2",
"t. c #838383",
"y. c #8B8B8B",
"u. c #959595",
"i. c #9C9C9C",
"p. c #9A97B7",
"a. c #938FB3",
"s. c #A3A3A3",
"d. c #AAAAB9",
"f. c gray70",
"g. c #BBBABA",
"h. c #B4B5BB",
"j. c #B1ADB4",
"k. c #EC9389",
"l. c #D7B0AD",
"z. c #D0BEBC",
"x. c #C2BDBB",
"c. c #E9B9B4",
"v. c #CFC7B7",
"b. c #ACC7E1",
"n. c #CDCDCD",
"m. c #C1C1C1",
"M. c #D5D6C7",
"N. c #CFCFD0",
"B. c #D3D4D2",
"V. c #DCDDD1",
"C. c #D3DBDB",
"Z. c #DBDCDB",
"A. c #DFD1D0",
"S. c #CBD4CE",
"D. c #E6CECB",
"F. c #DFE1D3",
"G. c #ECEECD",
"H. c #EDF0CD",
"J. c #E6E8D2",
"K. c #EEF1D1",
"L. c #D7F2F5",
"P. c #D1E6E4",
"I. c #E4E4E4",
"U. c #ECECEB",
"Y. c #E4EAEB",
"T. c #F0EDED",
"R. c #E5FEFF",
"E. c #EBFEFF",
"W. c #E5F6F8",
"Q. c #F3F3F3",
"!. c #F3FDFD",
"~. c #FDFDFD",
"^. c None",
/* pixels */
"^.^.^.^.^.^.^.^.^.^.^.^.^.^.* & & * ^.^.^.^.^.^.^.^.^.^.^.^.^.^.",
"^.^.^.^.^.^.^.^.^.^.^.= & # O o o o O $ & ^.^.^.^.^.^.^.^.^.^.^.",
"^.^.^.^.^.^.^.^.^.= # o # = ; y.y.t.= $ X o $ ^.^.^.^.^.^.^.^.^.",
"^.^.^.^.^.^.^.- $ X * f.U.~.~.~.~.~.~.Q.m.; X X % ^.^.^.^.^.^.^.",
"^.^.^.^.^.^.= o $ g.~.~.~.~.~.~.~.~.~.~.~.~.B.= . # ^.^.^.^.^.^.",
"^.^.^.^.^.= . - ~.~.~.~.Q.~.~.!.~.~.~.~.Q.~.~.~.u.. O ^.^.^.^.^.",
"^.^.^.^.= . t.~.~.Q.Q.!.!.!.!.Q.U.W.!.!.!.Q.Q.~.~.f.. # ^.^.^.^.",
"^.^.^.= o - ~.~.T.Q.!.E.D.k.P G G P T c.E.!.Q.Q.~.~.i.. $ ^.^.^.",
"^.^.^.# $ ~.~.U.T.E.Y.U a r a s s a r a G D.E.Q.Y.Q.~.- . ^.^.^.",
"^.^.* X g.~.I.U.R.A.b 4 g k k k j j k j e r l.E.U.U.~.Z.o # ^.^.",
"^.^.O * ~.I.I.W.Z.b 5 q b m d h h k i i i y 6 z.R.I.I.~.y.. ^.^.",
"^.& o s.~.I.I.L.F 4 h 0 g H n k p y A ( ) ( : f P.Y.J.Q.n.o $ ^.",
"^.% # N.U.Z.L.l.3 h 9 2 d L j 0 z e.:.:.,.>.>.C Y R.Z.Z.Y.% o ^.",
"^.O & I.Z.Z.L.I < n n m M J p e S :.&. .*.7.+.;.D K.Z.C.Q.r.X ^.",
"& o - U.B.B.S.v 3 9 K J H H m 7 #.,.%.&.w.2.@.=.~ v.Z.B.T.u.X % ",
"% X ; Y.N.C.m.w l 0 n H N N V , X...*.0.6.*.*.O.Q j.J.B.J.s.X $ ",
"% o ; I.S.P.g.2 3 w N H N H x > =...4.0.1.3.2.E W d.J.n.I.i.X $ ",
"% o - I.S.S.b., 1 0 L L H M u Z -. .4.q.6.9.6.<.Q h.V.n.I.i.X % ",
"^.o * Z.N.M.P.( < 8 0 g J c 3 ! X...4.q.q.q.3.<.^ v.V.N.Y.t.X ^.",
"^.# # n.B.N.G.8.+ e 4 3 y t / -. .&.0.0.q.@...[ ` H.B.N.J.= o ^.",
"^.% X s.I.N.B.M.=.! Z Z @ #.-. .%.1.*.9.1.W o.R g.V.N.Z.n.O # ^.",
"^.^.X - I.N.N.K.p.X.;.=.-.X.@.@.@.1...%.3.O.E r.K.n.n.T.i.  % ^.",
"^.^.# o g.J.N.N.H.] E o.$.@.@.@. .| @.$.o.[ ` H.B.N.C.Z.$ O ^.^.",
"^.^.^.X * I.B.S.V.H.a.Q } o.O.$.$.O.o.} R r.H.B.N.n.Q.y.  % ^.^.",
"^.^.^.$ . y.T.B.n.B.G.v.] ^ ..E { W ^ ] g.K.B.n.m.T.g.X # ^.^.^.",
"^.^.^.^.O X s.U.N.n.N.V.K.M.h.p.a.d.M.G.F.n.n.n.U.n.o o ^.^.^.^.",
"^.^.^.^.^.O X u.U.Z.n.n.N.S.V.J.J.F.N.n.n.n.B.Q.h.o X ^.^.^.^.^.",
"^.^.^.^.^.^.O . - n.T.Z.N.n.n.N.n.N.n.n.Z.U.Z.y.X o ^.^.^.^.^.^.",
"^.^.^.^.^.^.^.$ . O y.g.Z.I.I.I.I.I.Y.I.n.u.$   # ^.^.^.^.^.^.^.",
"^.^.^.^.^.^.^.^.% # . O * t.u.s.s.i.t.= # . O % ^.^.^.^.^.^.^.^.",
"^.^.^.^.^.^.^.^.^.^.% # o X X X X X X X # % ^.^.^.^.^.^.^.^.^.^.",
"^.^.^.^.^.^.^.^.^.^.^.^.^.^.% $ $ % ^.^.^.^.^.^.^.^.^.^.^.^.^.^."
};
